<?xml version="1.0" encoding="UTF-8"?>
<svg version="1.1" xmlns="http://www.w3.org/2000/svg" width="128" height="128">
<path d="M0 0 C0 0.99 0 1.98 0 3 C-0.64066406 3.24234375 -1.28132813 3.4846875 -1.94140625 3.734375 C-11.20104976 7.18795385 -11.20104976 7.18795385 -19 13.0625 C-21.18424709 15.17848937 -23.2725731 15.9890632 -26.0703125 17.09375 C-34.55324048 21.0776352 -40.79606135 28.71345797 -47 35.5 C-48.0197805 36.61554669 -49.04060176 37.73014294 -50.0625 38.84375 C-50.55105469 39.38128906 -51.03960937 39.91882812 -51.54296875 40.47265625 C-52.90880463 41.90440378 -54.38985405 43.22367585 -55.875 44.53125 C-58.5433211 47.63121128 -58.2329842 49.01855895 -58 53 C-61.76496285 64.15735567 -72.15570237 74.91555262 -82.5625 80.25 C-90.32114332 83.65176604 -97.46752828 84.06836581 -105.5625 81.4375 C-114.59048088 77.82630765 -120.17318136 71.88544585 -124 63 C-126.37618093 55.39926742 -125.57804295 47.52768202 -122.3203125 40.3515625 C-117.92223372 32.51829793 -111.70294558 27.33145933 -103.203125 24.375 C-100.64580324 23.93971119 -98.15694232 23.96535761 -95.56860352 23.96313477 C-86.69364384 23.85637904 -79.76626335 21.78329913 -71.77319336 17.97045898 C-65.12856106 14.82246748 -58.65207201 12.93913213 -51.25 13.0625 C-47.4502404 12.9894277 -45.30871749 11.76977912 -42 10 C-41.01 10.495 -41.01 10.495 -40 11 C-36.53235419 10.43995986 -33.45244783 8.96045974 -30.25 7.5625 C-23.90617018 4.88124671 -17.76684604 3.26878363 -11 2 C-11.33 2.66 -11.66 3.32 -12 4 C-11.319375 3.71125 -10.63875 3.4225 -9.9375 3.125 C-6.67106907 1.87402645 -3.37153877 0.92552045 0 0 Z M-44 13 C-44.33 13.66 -44.66 14.32 -45 15 C-44.01 14.67 -43.02 14.34 -42 14 C-42.66 13.67 -43.32 13.34 -44 13 Z " fill="#F2F6FB" transform="translate(126,23)"/>
<path d="M0 0 C0 0.99 0 1.98 0 3 C-0.64066406 3.24234375 -1.28132813 3.4846875 -1.94140625 3.734375 C-11.20104976 7.18795385 -11.20104976 7.18795385 -19 13.0625 C-21.18424709 15.17848937 -23.2725731 15.9890632 -26.0703125 17.09375 C-33.83451177 20.7400946 -39.65745978 27.45834414 -45.25097656 33.7590332 C-50.33326103 39.44970189 -55.2500124 44.26705231 -62 48 C-61.67 49.32 -61.34 50.64 -61 52 C-62.32 52.66 -63.64 53.32 -65 54 C-66.33985898 52.33857487 -67.67082708 50.66998649 -69 49 C-69.90298828 47.87851563 -69.90298828 47.87851563 -70.82421875 46.734375 C-71.45972656 45.93515625 -72.09523438 45.1359375 -72.75 44.3125 C-73.67039062 43.16201172 -73.67039062 43.16201172 -74.609375 41.98828125 C-76 40 -76 40 -76 38 C-76.66 38 -77.32 38 -78 38 C-81 32.25 -81 32.25 -81 30 C-83.31 29.67 -85.62 29.34 -88 29 C-87.67 28.34 -87.34 27.68 -87 27 C-87.66 26.34 -88.32 25.68 -89 25 C-87.35 25 -85.7 25 -84 25 C-84 24.34 -84 23.68 -84 23 C-81.04862705 21.6920155 -78.08781991 20.40681879 -75.125 19.125 C-74.30257812 18.76019531 -73.48015625 18.39539063 -72.6328125 18.01953125 C-65.68550089 15.03435829 -58.86553776 12.93557437 -51.25 13.0625 C-47.4502404 12.9894277 -45.30871749 11.76977912 -42 10 C-41.34 10.33 -40.68 10.66 -40 11 C-36.53235419 10.43995986 -33.45244783 8.96045974 -30.25 7.5625 C-23.90617018 4.88124671 -17.76684604 3.26878363 -11 2 C-11.33 2.66 -11.66 3.32 -12 4 C-11.319375 3.71125 -10.63875 3.4225 -9.9375 3.125 C-6.67106907 1.87402645 -3.37153877 0.92552045 0 0 Z M-44 13 C-44.33 13.66 -44.66 14.32 -45 15 C-44.01 14.67 -43.02 14.34 -42 14 C-42.66 13.67 -43.32 13.34 -44 13 Z " fill="#428F85" transform="translate(126,23)"/>
<path d="M0 0 C4.62 0.99 9.24 1.98 14 3 C14 3.66 14 4.32 14 5 C14.66 5.33 15.32 5.66 16 6 C16.625 8.5625 16.625 8.5625 17 11 C17.66 11 18.32 11 19 11 C19.92769462 12.34000334 20.84541635 13.68788448 21.71484375 15.06640625 C24.24734413 18.87670317 27.1629862 22.41388706 30 26 C30.99 25.67 31.98 25.34 33 25 C33.495 23.515 33.495 23.515 34 22 C33.34 21.67 32.68 21.34 32 21 C32.99 20.01 33.98 19.02 35 18 C35.66 18.33 36.32 18.66 37 19 C37.95417266 26.15629496 34.88758915 31.12894699 31 37 C29.10677158 39.36994061 27.36582008 41.05477016 25 43 C24.01 43 23.02 43 22 43 C22 41.35 22 39.7 22 38 C21.236875 38.825 20.47375 39.65 19.6875 40.5 C17 43 17 43 14 43 C13.566875 42.0409375 13.566875 42.0409375 13.125 41.0625 C12.17176549 38.84793921 12.17176549 38.84793921 10 38 C8.01871317 35.06769549 6.64610681 32.48897679 6 29 C6.63421875 28.76539062 7.2684375 28.53078125 7.921875 28.2890625 C10.18250739 27.17709092 10.18250739 27.17709092 10.828125 24.8359375 C10.96734375 24.02382812 11.1065625 23.21171875 11.25 22.375 C11.39953125 21.55773437 11.5490625 20.74046875 11.703125 19.8984375 C11.80109375 19.27195312 11.8990625 18.64546875 12 18 C10.5410574 18.47730838 9.08286504 18.95691042 7.625 19.4375 C6.81289063 19.70433594 6.00078125 19.97117187 5.1640625 20.24609375 C2.98968201 20.95179729 2.98968201 20.95179729 1 22 C-0.99960012 22.039992 -3.00047242 22.04346799 -5 22 C-3.60667426 18.63279613 -2.0210714 17.0140476 1 15 C-1.77455391 16.0305486 -4.17263099 17.10839621 -6.6875 18.6875 C-7.8321875 19.3371875 -7.8321875 19.3371875 -9 20 C-9.66 19.67 -10.32 19.34 -11 19 C-9.68 17.68 -8.36 16.36 -7 15 C-9.475 14.01 -9.475 14.01 -12 13 C-9.64033993 10.35718072 -7.44391426 8.64109361 -4.3125 7.0625 C-2.6728125 6.0415625 -2.6728125 6.0415625 -1 5 C-0.67 3.35 -0.34 1.7 0 0 Z " fill="#6BA7AC" transform="translate(31,50)"/>
<path d="M0 0 C0 0.99 0 1.98 0 3 C-0.64066406 3.24234375 -1.28132813 3.4846875 -1.94140625 3.734375 C-11.20104976 7.18795385 -11.20104976 7.18795385 -19 13.0625 C-21.19313944 15.18710383 -23.29306776 16.00028548 -26.10546875 17.1015625 C-28.19582133 18.09286372 -29.76561238 19.29555992 -31.5625 20.75 C-36.18849413 24.414513 -41.38382153 26.68864298 -46.73046875 29.09375 C-50.55824275 31.32547487 -52.37414918 33.47908515 -55 37 C-58.42356245 35.62056878 -59.6115964 34.43537979 -61.0625 31.0625 C-62.36396397 28.07415999 -63.70258481 26.28479203 -66 24 C-66.6875 21.3125 -66.6875 21.3125 -67 19 C-65.4375 17.4375 -65.4375 17.4375 -63 16 C-61.41832031 16.31130859 -61.41832031 16.31130859 -59.8046875 16.62890625 C-55.19565532 17.07845251 -52.55300131 15.73376982 -48.6875 13.5 C-46.47797733 12.26303518 -44.27903276 11.11143491 -42 10 C-41.34 10.33 -40.68 10.66 -40 11 C-36.53235419 10.43995986 -33.45244783 8.96045974 -30.25 7.5625 C-23.90617018 4.88124671 -17.76684604 3.26878363 -11 2 C-11.33 2.66 -11.66 3.32 -12 4 C-10.9790625 3.566875 -10.9790625 3.566875 -9.9375 3.125 C-6.67106907 1.87402645 -3.37153877 0.92552045 0 0 Z M-44 13 C-44.33 13.66 -44.66 14.32 -45 15 C-44.01 14.67 -43.02 14.34 -42 14 C-42.66 13.67 -43.32 13.34 -44 13 Z " fill="#164934" transform="translate(126,23)"/>
<path d="M0 0 C0.10957031 0.68707031 0.21914063 1.37414062 0.33203125 2.08203125 C0.49058594 2.98308594 0.64914063 3.88414063 0.8125 4.8125 C0.96332031 5.70582031 1.11414062 6.59914063 1.26953125 7.51953125 C2.06868565 10.23323736 3.0056881 11.09310999 5 13 C5 13.99 5 14.98 5 16 C5.61875 16.268125 6.2375 16.53625 6.875 16.8125 C9 18 9 18 11 21 C11.78375 20.195625 12.5675 19.39125 13.375 18.5625 C16 16 16 16 18 15 C17.67 16.98 17.34 18.96 17 21 C17.66 21.33 18.32 21.66 19 22 C14.68356024 27.07816443 8.37772814 29.67632057 2 31 C-0.1875 31 -0.1875 31 -2 30 C-4 27.25 -4 27.25 -6 24 C-6.7425 23.0925 -7.485 22.185 -8.25 21.25 C-10 19 -10 19 -10 17 C-9.34 17 -8.68 17 -8 17 C-8 16.34 -8 15.68 -8 15 C-8.99 14.67 -9.98 14.34 -11 14 C-9.68 13.01 -8.36 12.02 -7 11 C-8.32 10.67 -9.64 10.34 -11 10 C-11.33 8.02 -11.66 6.04 -12 4 C-10.56570999 3.32645501 -9.12742943 2.66140299 -7.6875 2 C-6.88699219 1.62875 -6.08648437 1.2575 -5.26171875 0.875 C-3 0 -3 0 0 0 Z " fill="#ADC6E4" transform="translate(36,72)"/>
<path d="M0 0 C3.61569905 2.63848309 6.02835214 4.95293333 8 9 C8 9.99 8 10.98 8 12 C8.66 12 9.32 12 10 12 C10 12.66 10 13.32 10 14 C10.78375 13.67 11.5675 13.34 12.375 13 C15 12 15 12 17 12 C19.36214538 9.35153397 20.87172132 7.38483604 22 4 C21.34 3.67 20.68 3.34 20 3 C20.99 2.01 21.98 1.02 23 0 C23.66 0.33 24.32 0.66 25 1 C25.95417266 8.15629496 22.88758915 13.12894699 19 19 C17.10677158 21.36994061 15.36582008 23.05477016 13 25 C12.01 25 11.02 25 10 25 C10 23.35 10 21.7 10 20 C8.8553125 21.2375 8.8553125 21.2375 7.6875 22.5 C5 25 5 25 2 25 C1.71125 24.360625 1.4225 23.72125 1.125 23.0625 C0.17176549 20.84793921 0.17176549 20.84793921 -2 20 C-3.98128683 17.06769549 -5.35389319 14.48897679 -6 11 C-5.04867187 10.64808594 -5.04867187 10.64808594 -4.078125 10.2890625 C-1.81749261 9.17709092 -1.81749261 9.17709092 -1.171875 6.8359375 C-0.96304688 5.61777344 -0.96304688 5.61777344 -0.75 4.375 C-0.60046875 3.55773437 -0.4509375 2.74046875 -0.296875 1.8984375 C-0.19890625 1.27195312 -0.1009375 0.64546875 0 0 Z " fill="#85B2C0" transform="translate(43,68)"/>
<path d="M0 0 C0.33 0.66 0.66 1.32 1 2 C-7.77386935 5.38338753 -7.77386935 5.38338753 -13 4 C-13.99 4.66 -14.98 5.32 -16 6 C-15.67 8.31 -15.34 10.62 -15 13 C-14.01 13.33 -13.02 13.66 -12 14 C-10.83203125 15.70703125 -10.83203125 15.70703125 -9.8125 17.8125 C-9.46832031 18.49957031 -9.12414062 19.18664062 -8.76953125 19.89453125 C-8 22 -8 22 -8 26 C-10.5 27.75 -10.5 27.75 -13 29 C-17.06279504 24.56901416 -20.87609528 19.98534569 -24.5 15.1875 C-25.1909375 14.27355469 -25.881875 13.35960937 -26.59375 12.41796875 C-27.28984375 11.22107422 -27.28984375 11.22107422 -28 10 C-27 7 -27 7 -24.55859375 5.68359375 C-16.28927981 2.38207792 -8.99545396 -0.37481058 0 0 Z " fill="#177760" transform="translate(76,36)"/>
<path d="M0 0 C1.41805831 0.28482368 2.83440379 0.57818144 4.25 0.875 C5.03890625 1.03742187 5.8278125 1.19984375 6.640625 1.3671875 C8.96831144 1.99150075 10.89031952 2.84838542 13 4 C9.79937313 5.60031344 7.27728194 4.03173691 4 3 C4.71928236 7.59313165 7.46651113 9.86966858 10.6015625 13.09765625 C11.06304687 13.72542969 11.52453125 14.35320312 12 15 C11 18 11 18 8.92578125 19.16796875 C4.14916064 21.03149338 0.22554056 22.5500569 -5 22 C-3.60667426 18.63279613 -2.0210714 17.0140476 1 15 C-1.77455391 16.0305486 -4.17263099 17.10839621 -6.6875 18.6875 C-7.8321875 19.3371875 -7.8321875 19.3371875 -9 20 C-9.66 19.67 -10.32 19.34 -11 19 C-9.68 17.68 -8.36 16.36 -7 15 C-9.475 14.01 -9.475 14.01 -12 13 C-9.64033993 10.35718072 -7.44391426 8.64109361 -4.3125 7.0625 C-0.79878665 5.35962001 -0.79878665 5.35962001 -0.0625 2.25 C-0.041875 1.5075 -0.02125 0.765 0 0 Z " fill="#8DB6C5" transform="translate(31,50)"/>
<path d="M0 0 C2.38594197 1.19297098 2.83734847 2.14357265 4.125 4.4375 C4.47820313 5.05496094 4.83140625 5.67242187 5.1953125 6.30859375 C6 8 6 8 6 10 C6.66 10 7.32 10 8 10 C9.17361494 11.66138941 10.26425263 13.38179483 11.3125 15.125 C13.36014814 18.46906268 15.34063097 21.55465458 18 24.4375 C20 27 20 27 19.8125 29.375 C19.544375 29.91125 19.27625 30.4475 19 31 C17.68 31.33 16.36 31.66 15 32 C14.29423828 30.98679687 14.29423828 30.98679687 13.57421875 29.953125 C12.95160156 29.06109375 12.32898438 28.1690625 11.6875 27.25 C11.07261719 26.36828125 10.45773438 25.4865625 9.82421875 24.578125 C8.6771203 22.95695803 7.49625243 21.35865998 6.26953125 19.796875 C5 18 5 18 5 16 C4.34 16 3.68 16 3 16 C0 10.25 0 10.25 0 8 C-2.31 7.67 -4.62 7.34 -7 7 C-6.67 6.34 -6.34 5.68 -6 5 C-6.66 4.34 -7.32 3.68 -8 3 C-6.35 3 -4.7 3 -3 3 C-3 2.34 -3 1.68 -3 1 C-2.01 0.67 -1.02 0.34 0 0 Z " fill="#549B98" transform="translate(45,45)"/>
<path d="M0 0 C0 0.66 0 1.32 0 2 C-0.66 2 -1.32 2 -2 2 C-1.21072301 3.12667784 -0.41848345 4.25128067 0.375 5.375 C0.81585937 6.00148438 1.25671875 6.62796875 1.7109375 7.2734375 C3.02808866 9.12380509 3.02808866 9.12380509 5 11 C5.69748583 12.31747324 6.36959957 13.64914193 7 15 C6 16 6 16 2.9375 16.0625 C1.968125 16.041875 0.99875 16.02125 0 16 C0 15.34 0 14.68 0 14 C-1.423125 13.62875 -1.423125 13.62875 -2.875 13.25 C-6 12 -6 12 -6.90625 10 C-7.83046571 7.79695701 -7.83046571 7.79695701 -10.1640625 7.171875 C-10.97617187 7.03265625 -11.78828125 6.8934375 -12.625 6.75 C-13.44226563 6.60046875 -14.25953125 6.4509375 -15.1015625 6.296875 C-15.72804688 6.19890625 -16.35453125 6.1009375 -17 6 C-17.33 4.68 -17.66 3.36 -18 2 C-11.64364093 -0.27012824 -6.68030042 -1.43149295 0 0 Z " fill="#E0E6FE" transform="translate(28,87)"/>
<path d="M0 0 C-0.99 0.66 -1.98 1.32 -3 2 C-2.34 2.66 -1.68 3.32 -1 4 C-1.92232422 3.96519531 -1.92232422 3.96519531 -2.86328125 3.9296875 C-3.67152344 3.91164062 -4.47976562 3.89359375 -5.3125 3.875 C-6.51326172 3.84019531 -6.51326172 3.84019531 -7.73828125 3.8046875 C-10.28388576 3.84182678 -10.28388576 3.84182678 -13 6 C-13.66 5.67 -14.32 5.34 -15 5 C-15 4.01 -15 3.02 -15 2 C-21.66106664 4.12158528 -26.95017547 6.08665722 -32 11 C-31.67 11.33 -31.34 11.66 -31 12 C-31.41332203 16.2985491 -32.0598884 20.1197768 -34 24 C-34.66 24.33 -35.32 24.66 -36 25 C-36.28875 24.360625 -36.5775 23.72125 -36.875 23.0625 C-37.82823451 20.84793921 -37.82823451 20.84793921 -40 20 C-35.65727212 10.79258175 -29.79538694 4.23083348 -20.07421875 0.64453125 C-13.48527558 -0.73688631 -6.69229145 -0.27949245 0 0 Z " fill="#E5ECF7" transform="translate(42,47)"/>
<path d="M0 0 C0 0.66 0 1.32 0 2 C0.99 2.33 1.98 2.66 3 3 C2.01 3.33 1.02 3.66 0 4 C0 4.66 0 5.32 0 6 C-0.66 6 -1.32 6 -2 6 C-1.6390625 6.48210937 -1.278125 6.96421875 -0.90625 7.4609375 C-0.4421875 8.09257813 0.021875 8.72421875 0.5 9.375 C0.9640625 10.00148438 1.428125 10.62796875 1.90625 11.2734375 C3 13 3 13 3 15 C3.66 15 4.32 15 5 15 C5.99 16.485 5.99 16.485 7 18 C9.05003955 19.19232613 9.05003955 19.19232613 11 20 C4.88235294 22 4.88235294 22 1.8125 22 C-1.09639168 20.39509424 -2.28364997 17.7890688 -4 15 C-5.11375 13.63875 -5.11375 13.63875 -6.25 12.25 C-8 10 -8 10 -8 8 C-7.34 8 -6.68 8 -6 8 C-6 7.34 -6 6.68 -6 6 C-6.99 5.67 -7.98 5.34 -9 5 C-2.40909091 0 -2.40909091 0 0 0 Z " fill="#BFD1F8" transform="translate(34,81)"/>
<path d="M0 0 C0.66 0.33 1.32 0.66 2 1 C2 2.32 2 3.64 2 5 C3.74919724 7.55824404 3.74919724 7.55824404 6 10.0625 C10 14.68055556 10 14.68055556 10 18 C9.34 18.99 8.68 19.98 8 21 C4.57643755 19.62056878 3.3884036 18.43537979 1.9375 15.0625 C0.63603603 12.07415999 -0.70258481 10.28479203 -3 8 C-3.6875 5.3125 -3.6875 5.3125 -4 3 C-2.68 2.01 -1.36 1.02 0 0 Z " fill="#0B7055" transform="translate(63,39)"/>
<path d="M0 0 C0.99 0.33 1.98 0.66 3 1 C3 1.99 3 2.98 3 4 C3.98028616 5.34789347 4.97971135 6.68212715 6 8 C6 8.66 6 9.32 6 10 C6.66 10 7.32 10 8 10 C9.69140625 11.8984375 9.69140625 11.8984375 11.5625 14.375 C12.49255859 15.59316406 12.49255859 15.59316406 13.44140625 16.8359375 C15 19 15 19 16 21 C14.02 21.99 14.02 21.99 12 23 C7.93720496 18.56901416 4.12390472 13.98534569 0.5 9.1875 C-0.1909375 8.27355469 -0.881875 7.35960937 -1.59375 6.41796875 C-2.28984375 5.22107422 -2.28984375 5.22107422 -3 4 C-2.67 3.01 -2.34 2.02 -2 1 C-1.34 0.67 -0.68 0.34 0 0 Z " fill="#3A8A7C" transform="translate(51,42)"/>
<path d="M0 0 C-1.07455502 3.22366505 -1.70306842 3.82638112 -4.25 5.875 C-6.54878465 7.7609417 -8.56016558 9.58684014 -10.625 11.75 C-13.9209552 14.87248387 -16.47557644 16 -21 16 C-19.96014641 12.88043924 -19.32277946 12.15072172 -17 10 C-16.42121094 9.37480469 -15.84242187 8.74960937 -15.24609375 8.10546875 C-12.77939838 5.79320996 -10.3535263 4.33961781 -7.375 2.75 C-6.41335937 2.22921875 -5.45171875 1.7084375 -4.4609375 1.171875 C-2 0 -2 0 0 0 Z " fill="#B4CCC6" transform="translate(89,47)"/>
<path d="M0 0 C0 0.99 0 1.98 0 3 C-0.96099609 3.36351562 -0.96099609 3.36351562 -1.94140625 3.734375 C-11.27363391 7.23638977 -11.27363391 7.23638977 -19.125 13.1875 C-21.37102919 15.35866155 -22.94218944 15.66024327 -26 16 C-26 15.01 -26 14.02 -26 13 C-23.36 11.68 -20.72 10.36 -18 9 C-18 7.68 -18 6.36 -18 5 C-15.64046906 2.64046906 -14.22104383 2.50858587 -11 2 C-11.33 2.66 -11.66 3.32 -12 4 C-11.319375 3.71125 -10.63875 3.4225 -9.9375 3.125 C-6.67106907 1.87402645 -3.37153877 0.92552045 0 0 Z " fill="#AFC0BA" transform="translate(126,23)"/>
<path d="M0 0 C3.59476701 3.49205938 6.92026191 7.04033675 10 11 C10 11.66 10 12.32 10 13 C10.66 13.33 11.32 13.66 12 14 C9.525 15.485 9.525 15.485 7 17 C6.54625 16.195625 6.0925 15.39125 5.625 14.5625 C4.25274335 11.91143428 4.25274335 11.91143428 2 11 C0.06738427 8.13972872 -1.6398322 5.48162211 -2 2 C-1.34 1.34 -0.68 0.68 0 0 Z " fill="#98BAD0" transform="translate(39,77)"/>
<path d="M0 0 C2.1875 0.0625 2.1875 0.0625 5 1 C6.48481018 2.67884788 7.67806853 4.42278445 8.88671875 6.30859375 C10.02053757 8.15512681 10.02053757 8.15512681 12 10 C12.69748583 11.31747324 13.36959957 12.64914193 14 14 C13 15 13 15 9.9375 15.0625 C8.968125 15.041875 7.99875 15.02125 7 15 C7 13.68 7 12.36 7 11 C6.0206121 9.97980427 5.02104551 8.97850195 4 8 C4 7.01 4 6.02 4 5 C3.34 5 2.68 5 2 5 C2 4.34 2 3.68 2 3 C1.34 2.67 0.68 2.34 0 2 C0 1.34 0 0.68 0 0 Z " fill="#CFDBFE" transform="translate(21,88)"/>
<path d="M0 0 C0.75410156 0.00322266 1.50820313 0.00644531 2.28515625 0.00976562 C3.06246094 0.01814453 3.83976562 0.02652344 4.640625 0.03515625 C5.43339844 0.03966797 6.22617187 0.04417969 7.04296875 0.04882812 C8.99222008 0.0605706 10.94143238 0.07850479 12.890625 0.09765625 C11.900625 0.75765625 10.910625 1.41765625 9.890625 2.09765625 C10.550625 2.75765625 11.210625 3.41765625 11.890625 4.09765625 C10.96830078 4.06285156 10.96830078 4.06285156 10.02734375 4.02734375 C9.21910156 4.00929687 8.41085938 3.99125 7.578125 3.97265625 C6.37736328 3.93785156 6.37736328 3.93785156 5.15234375 3.90234375 C2.60673924 3.93948303 2.60673924 3.93948303 -0.109375 6.09765625 C-0.769375 5.76765625 -1.429375 5.43765625 -2.109375 5.09765625 C-2.109375 4.10765625 -2.109375 3.11765625 -2.109375 2.09765625 C-4.419375 2.42765625 -6.729375 2.75765625 -9.109375 3.09765625 C-8.109375 1.09765625 -8.109375 1.09765625 -6.30371094 0.47875977 C-4.14815076 0.10439067 -2.18548694 -0.01655672 0 0 Z " fill="#C1D9DC" transform="translate(29.109375,46.90234375)"/>
<path d="M0 0 C0.99 0.33 1.98 0.66 3 1 C3.33 2.65 3.66 4.3 4 6 C4.66 6 5.32 6 6 6 C8.43160605 9.36683915 9 10.73350364 9 15 C5.11985064 13.47940093 3.26093438 11.13921469 0.75 7.875 C0.04359375 6.96492188 -0.6628125 6.05484375 -1.390625 5.1171875 C-1.92171875 4.41851562 -2.4528125 3.71984375 -3 3 C-2.01 2.01 -1.02 1.02 0 0 Z " fill="#054931" transform="translate(66,40)"/>
<path d="M0 0 C0.33 0.66 0.66 1.32 1 2 C-4.17190222 3.99439367 -7.51271228 5.18644059 -13 4 C-16.26750881 5.34126843 -16.26750881 5.34126843 -19 7 C-19.66 6.34 -20.32 5.68 -21 5 C-13.83043589 1.08767441 -8.2492626 -0.16498525 0 0 Z " fill="#8AAEA2" transform="translate(76,36)"/>
<path d="M0 0 C5.75 -0.125 5.75 -0.125 8 1 C6.55873214 4.36295835 4.79407345 6.62927102 2 9 C1.01 9 0.02 9 -1 9 C-1.125 2.25 -1.125 2.25 0 0 Z " fill="#9FC4CA" transform="translate(54,84)"/>
<path d="M0 0 C0.66 0.33 1.32 0.66 2 1 C2 2.32 2 3.64 2 5 C3.74919724 7.55824404 3.74919724 7.55824404 6 10.0625 C10 14.68055556 10 14.68055556 10 18 C9.34 18.33 8.68 18.66 8 19 C4.66666667 14 1.33333333 9 -2 4 C-1.34 2.68 -0.68 1.36 0 0 Z " fill="#086348" transform="translate(63,39)"/>
<path d="M0 0 C1.33333333 2.66666667 2.66666667 5.33333333 4 8 C4.66 8 5.32 8 6 8 C8.29648649 10.5614657 9 11.47967572 9 15 C9.99 15.33 10.98 15.66 12 16 C13.1875 18.0625 13.1875 18.0625 14 20 C9.71095765 18.4114658 7.67654474 15.56872632 5 12 C5 11.34 5 10.68 5 10 C4.34 10 3.68 10 3 10 C-1 4.70588235 -1 4.70588235 -1 1 C-0.67 0.67 -0.34 0.34 0 0 Z " fill="#247E6C" transform="translate(54,42)"/>
<path d="M0 0 C0.66 0.33 1.32 0.66 2 1 C2.30769231 9 2.30769231 9 0 12 C-2.125 12.75 -2.125 12.75 -4 13 C-3.44271087 9.65626525 -2.64826111 6.96687001 -1 4 C-1.66 3.67 -2.32 3.34 -3 3 C-2.01 2.01 -1.02 1.02 0 0 Z " fill="#A6CAC8" transform="translate(66,68)"/>
<path d="M0 0 C-1.27971948 3.83915844 -2.66707096 4.73077172 -6 7 C-9.69870373 8.70154792 -12.90166554 10 -17 10 C-14.07647233 6.81321628 -11.18387159 4.78276705 -7.375 2.75 C-6.41335937 2.22921875 -5.45171875 1.7084375 -4.4609375 1.171875 C-2 0 -2 0 0 0 Z " fill="#95ADA4" transform="translate(89,47)"/>
<path d="M0 0 C0.66 0.33 1.32 0.66 2 1 C1.67 1.66 1.34 2.32 1 3 C1.639375 3.28875 2.27875 3.5775 2.9375 3.875 C5 5 5 5 6 7 C0.7265625 10.22265625 0.7265625 10.22265625 -1 11 C-1.66 10.67 -2.32 10.34 -3 10 C-1.68 8.68 -0.36 7.36 1 6 C-1.475 5.01 -1.475 5.01 -4 4 C-2.68 2.68 -1.36 1.36 0 0 Z " fill="#BCD1E4" transform="translate(23,59)"/>
<path d="M0 0 C-1.49041773 3.79379058 -3.69062512 5.68343758 -7 8 C-7.66 8 -8.32 8 -9 8 C-9 7.34 -9 6.68 -9 6 C-9.66 6 -10.32 6 -11 6 C-11 5.01 -11 4.02 -11 3 C-8.92446352 2.4465236 -7.15634036 2 -5 2 C-2 0 -2 0 0 0 Z " fill="#76ADA2" transform="translate(76,60)"/>
<path d="M0 0 C-1.36125 0.86625 -1.36125 0.86625 -2.75 1.75 C-5.96003661 3.80588034 -5.96003661 3.80588034 -8.0625 6.1875 C-10.35131037 8.32864518 -11.92929266 8.6588103 -15 9 C-15 8.01 -15 7.02 -15 6 C-14.43410156 5.73445313 -13.86820312 5.46890625 -13.28515625 5.1953125 C-12.55167969 4.84210937 -11.81820312 4.48890625 -11.0625 4.125 C-10.33160156 3.77695312 -9.60070312 3.42890625 -8.84765625 3.0703125 C-6.83667541 2.1315023 -6.83667541 2.1315023 -6 0 C-3 -1 -3 -1 0 0 Z " fill="#8EA69D" transform="translate(115,30)"/>
<path d="M0 0 C0.33 0 0.66 0 1 0 C0.9129995 1.62600941 0.8048219 3.25089678 0.6875 4.875 C0.62949219 5.77992187 0.57148438 6.68484375 0.51171875 7.6171875 C0 10 0 10 -3 12 C-3.75 9.375 -3.75 9.375 -4 6 C-2.125 2.625 -2.125 2.625 0 0 Z " fill="#CCD9FD" transform="translate(9,60)"/>
<path d="M0 0 C0.66 0.33 1.32 0.66 2 1 C-2.40848325 5.56592908 -5.84943494 8.1827876 -12 10 C-11 9 -10 8 -9 7 C-8.525625 6.505 -8.05125 6.01 -7.5625 5.5 C-5.251165 3.2811184 -2.86818707 1.43409353 0 0 Z " fill="#A4B8B0" transform="translate(84,33)"/>
<path d="M0 0 C0.99 0 1.98 0 3 0 C5.0078125 2.3359375 5.0078125 2.3359375 7.125 5.375 C7.82882813 6.37273438 8.53265625 7.37046875 9.2578125 8.3984375 C11 11 11 11 12 13 C8.14561649 11.48081731 6.26394504 9.17304038 3.75 5.9375 C3.04359375 5.03902344 2.3371875 4.14054687 1.609375 3.21484375 C0 1 0 1 0 0 Z " fill="#005439" transform="translate(63,42)"/>
<path d="M0 0 C0.99 0 1.98 0 3 0 C2.67 1.65 2.34 3.3 2 5 C0.68 5.33 -0.64 5.66 -2 6 C-1.125 1.125 -1.125 1.125 0 0 Z " fill="#92BAC6" transform="translate(55,87)"/>
<path d="M0 0 C0.33 0.66 0.66 1.32 1 2 C0.06553465 4.03144641 -0.93224776 6.03533587 -2 8 C-3.65 8 -5.3 8 -7 8 C-6.02133662 6.85373678 -5.04205413 5.70800212 -4.0625 4.5625 C-3.51722656 3.92441406 -2.97195312 3.28632812 -2.41015625 2.62890625 C-1.63204305 1.73008851 -0.84063472 0.84063472 0 0 Z " fill="#EBF1F6" transform="translate(53,87)"/>
<path d="M0 0 C0 0.66 0 1.32 0 2 C0.99 2.33 1.98 2.66 3 3 C-2.75 5 -2.75 5 -5 5 C-5 3.68 -5 2.36 -5 1 C-2 0 -2 0 0 0 Z " fill="#CBDBEF" transform="translate(34,81)"/>
<path d="M0 0 C0 0.99 0 1.98 0 3 C-2.97 3.66 -5.94 4.32 -9 5 C-9 4.34 -9 3.68 -9 3 C-6.03 2.01 -3.06 1.02 0 0 Z " fill="#9CB0A8" transform="translate(126,23)"/>
<path d="M0 0 C0.33 0.66 0.66 1.32 1 2 C1.99 1.67 2.98 1.34 4 1 C3.34 2.65 2.68 4.3 2 6 C1.01 5.34 0.02 4.68 -1 4 C-1.66 3.67 -2.32 3.34 -3 3 C-2.01 2.01 -1.02 1.02 0 0 Z " fill="#A6CACC" transform="translate(61,79)"/>
<path d="M0 0 C0.66 0 1.32 0 2 0 C2 0.99 2 1.98 2 3 C3.32 2.67 4.64 2.34 6 2 C6 2.99 6 3.98 6 5 C3.69 4.34 1.38 3.68 -1 3 C-0.67 2.01 -0.34 1.02 0 0 Z " fill="#7BB0B6" transform="translate(56,80)"/>
<path d="M0 0 C1.7074998 1.28062485 3.37373596 2.61767557 5 4 C5 4.66 5 5.32 5 6 C3.68 6 2.36 6 1 6 C0.67 4.02 0.34 2.04 0 0 Z " fill="#BBCFF5" transform="translate(24,76)"/>
<path d="M0 0 C0.99 0 1.98 0 3 0 C3 0.99 3 1.98 3 3 C1.35 3.66 -0.3 4.32 -2 5 C-2.33 4.34 -2.66 3.68 -3 3 C-2.34 3 -1.68 3 -1 3 C-0.67 2.01 -0.34 1.02 0 0 Z " fill="#A2C0D9" transform="translate(33,72)"/>
<path d="M0 0 C0.99 0.66 1.98 1.32 3 2 C-0.96 3.98 -0.96 3.98 -5 6 C-5.33 5.34 -5.66 4.68 -6 4 C-4.02 2.68 -2.04 1.36 0 0 Z " fill="#6A9082" transform="translate(78,52)"/>
<path d="M0 0 C2.31 0 4.62 0 7 0 C7.33 0.66 7.66 1.32 8 2 C3.545 2.495 3.545 2.495 -1 3 C-0.67 2.01 -0.34 1.02 0 0 Z " fill="#C3D0CC" transform="translate(69,36)"/>
</svg>
